<mxfile host="app.diagrams.net" modified="2021-06-17T12:23:55.500Z" agent="5.0 (X11)" etag="Z11d1BWfpg5S4wNY33a3" version="14.6.13" type="github">
  <diagram id="C5RBs43oDa-KdzZeNtuy" name="Page-1">
    <mxGraphModel dx="1672" dy="918" grid="1" gridSize="10" guides="1" tooltips="1" connect="1" arrows="1" fold="1" page="1" pageScale="1" pageWidth="827" pageHeight="1169" math="0" shadow="0">
      <root>
        <mxCell id="WIyWlLk6GJQsqaUBKTNV-0" />
        <mxCell id="WIyWlLk6GJQsqaUBKTNV-1" parent="WIyWlLk6GJQsqaUBKTNV-0" />
        <mxCell id="WIyWlLk6GJQsqaUBKTNV-11" value="&lt;font style=&quot;font-size: 22px&quot;&gt;Fetch data&lt;/font&gt;" style="whiteSpace=wrap;html=1;fontSize=12;glass=0;strokeWidth=1;shadow=0;sketch=1;fillColor=#d5e8d4;strokeColor=#82b366;" parent="WIyWlLk6GJQsqaUBKTNV-1" vertex="1">
          <mxGeometry x="450" y="520" width="140" height="50" as="geometry" />
        </mxCell>
        <mxCell id="CebM5aKBRsjipQ1LpqMG-0" value="&lt;font style=&quot;font-size: 20px&quot;&gt;Start&lt;/font&gt;" style="ellipse;whiteSpace=wrap;html=1;sketch=1;fillColor=#dae8fc;strokeColor=#6c8ebf;" vertex="1" parent="WIyWlLk6GJQsqaUBKTNV-1">
          <mxGeometry x="300" y="10" width="120" height="80" as="geometry" />
        </mxCell>
        <mxCell id="CebM5aKBRsjipQ1LpqMG-2" value="" style="endArrow=classic;html=1;exitX=0.5;exitY=1;exitDx=0;exitDy=0;sketch=1;curved=1;" edge="1" parent="WIyWlLk6GJQsqaUBKTNV-1" source="CebM5aKBRsjipQ1LpqMG-4">
          <mxGeometry width="50" height="50" relative="1" as="geometry">
            <mxPoint x="360" y="270" as="sourcePoint" />
            <mxPoint x="520" y="320" as="targetPoint" />
            <Array as="points">
              <mxPoint x="360" y="320" />
            </Array>
          </mxGeometry>
        </mxCell>
        <mxCell id="CebM5aKBRsjipQ1LpqMG-4" value="&lt;font style=&quot;font-size: 18px&quot;&gt;&lt;br&gt;if item numbers match&lt;/font&gt;" style="rhombus;whiteSpace=wrap;html=1;shadow=0;fontFamily=Helvetica;fontSize=12;align=center;strokeWidth=1;spacing=6;spacingTop=-4;sketch=1;fillColor=#f8cecc;strokeColor=#b85450;" vertex="1" parent="WIyWlLk6GJQsqaUBKTNV-1">
          <mxGeometry x="270" y="150" width="180" height="110" as="geometry" />
        </mxCell>
        <mxCell id="CebM5aKBRsjipQ1LpqMG-7" value="" style="endArrow=classic;html=1;exitX=0.5;exitY=1;exitDx=0;exitDy=0;sketch=1;curved=1;" edge="1" parent="WIyWlLk6GJQsqaUBKTNV-1" source="CebM5aKBRsjipQ1LpqMG-0" target="CebM5aKBRsjipQ1LpqMG-4">
          <mxGeometry width="50" height="50" relative="1" as="geometry">
            <mxPoint x="390" y="410" as="sourcePoint" />
            <mxPoint x="440" y="360" as="targetPoint" />
          </mxGeometry>
        </mxCell>
        <mxCell id="CebM5aKBRsjipQ1LpqMG-8" value="&lt;font style=&quot;font-size: 20px&quot;&gt;True&lt;/font&gt;" style="text;html=1;strokeColor=none;fillColor=none;align=center;verticalAlign=middle;whiteSpace=wrap;sketch=1;" vertex="1" parent="WIyWlLk6GJQsqaUBKTNV-1">
          <mxGeometry x="520" y="250" width="40" height="20" as="geometry" />
        </mxCell>
        <mxCell id="CebM5aKBRsjipQ1LpqMG-9" value="" style="endArrow=classic;html=1;exitX=1;exitY=0.5;exitDx=0;exitDy=0;entryX=0.5;entryY=0;entryDx=0;entryDy=0;sketch=1;curved=1;" edge="1" parent="WIyWlLk6GJQsqaUBKTNV-1" source="CebM5aKBRsjipQ1LpqMG-4" target="CebM5aKBRsjipQ1LpqMG-22">
          <mxGeometry width="50" height="50" relative="1" as="geometry">
            <mxPoint x="277" y="208" as="sourcePoint" />
            <mxPoint x="1390" y="290" as="targetPoint" />
            <Array as="points">
              <mxPoint x="720" y="205" />
              <mxPoint x="1190" y="205" />
            </Array>
          </mxGeometry>
        </mxCell>
        <mxCell id="CebM5aKBRsjipQ1LpqMG-11" value="&lt;font style=&quot;font-size: 17px&quot;&gt;&lt;br&gt;&lt;font style=&quot;font-size: 17px&quot;&gt;if manufacture part numbers match&lt;/font&gt;&lt;/font&gt;" style="rhombus;whiteSpace=wrap;html=1;shadow=0;fontFamily=Helvetica;fontSize=12;align=center;strokeWidth=1;spacing=6;spacingTop=-4;sketch=1;fillColor=#f8cecc;strokeColor=#b85450;" vertex="1" parent="WIyWlLk6GJQsqaUBKTNV-1">
          <mxGeometry x="430" y="320" width="180" height="110" as="geometry" />
        </mxCell>
        <mxCell id="CebM5aKBRsjipQ1LpqMG-12" value="" style="endArrow=classic;html=1;exitX=0.5;exitY=1;exitDx=0;exitDy=0;sketch=1;curved=1;" edge="1" parent="WIyWlLk6GJQsqaUBKTNV-1" source="CebM5aKBRsjipQ1LpqMG-11">
          <mxGeometry width="50" height="50" relative="1" as="geometry">
            <mxPoint x="390" y="410" as="sourcePoint" />
            <mxPoint x="520" y="520" as="targetPoint" />
          </mxGeometry>
        </mxCell>
        <mxCell id="CebM5aKBRsjipQ1LpqMG-13" value="&lt;font style=&quot;font-size: 20px&quot;&gt;True&lt;/font&gt;" style="text;html=1;strokeColor=none;fillColor=none;align=center;verticalAlign=middle;whiteSpace=wrap;sketch=1;" vertex="1" parent="WIyWlLk6GJQsqaUBKTNV-1">
          <mxGeometry x="530" y="460" width="40" height="20" as="geometry" />
        </mxCell>
        <mxCell id="CebM5aKBRsjipQ1LpqMG-14" value="" style="endArrow=classic;html=1;exitX=1;exitY=0.5;exitDx=0;exitDy=0;entryX=0.5;entryY=0;entryDx=0;entryDy=0;sketch=1;curved=1;" edge="1" parent="WIyWlLk6GJQsqaUBKTNV-1" source="CebM5aKBRsjipQ1LpqMG-11" target="CebM5aKBRsjipQ1LpqMG-16">
          <mxGeometry width="50" height="50" relative="1" as="geometry">
            <mxPoint x="610" y="380" as="sourcePoint" />
            <mxPoint x="760" y="375" as="targetPoint" />
            <Array as="points">
              <mxPoint x="820" y="375" />
            </Array>
          </mxGeometry>
        </mxCell>
        <mxCell id="CebM5aKBRsjipQ1LpqMG-15" value="&lt;font style=&quot;font-size: 20px&quot;&gt;False&lt;/font&gt;" style="text;html=1;strokeColor=none;fillColor=none;align=center;verticalAlign=middle;whiteSpace=wrap;sketch=1;" vertex="1" parent="WIyWlLk6GJQsqaUBKTNV-1">
          <mxGeometry x="660" y="340" width="40" height="20" as="geometry" />
        </mxCell>
        <mxCell id="CebM5aKBRsjipQ1LpqMG-16" value="&lt;font style=&quot;font-size: 17px&quot;&gt;&lt;br&gt;Check description (threshold=40%)&lt;br&gt;&lt;/font&gt;" style="rhombus;whiteSpace=wrap;html=1;shadow=0;fontFamily=Helvetica;fontSize=12;align=center;strokeWidth=1;spacing=6;spacingTop=-4;sketch=1;fillColor=#f8cecc;strokeColor=#b85450;" vertex="1" parent="WIyWlLk6GJQsqaUBKTNV-1">
          <mxGeometry x="730" y="480" width="180" height="110" as="geometry" />
        </mxCell>
        <mxCell id="CebM5aKBRsjipQ1LpqMG-17" value="" style="endArrow=classic;html=1;exitX=0.5;exitY=1;exitDx=0;exitDy=0;sketch=1;curved=1;" edge="1" parent="WIyWlLk6GJQsqaUBKTNV-1">
          <mxGeometry width="50" height="50" relative="1" as="geometry">
            <mxPoint x="819.5" y="590" as="sourcePoint" />
            <mxPoint x="819.5" y="680" as="targetPoint" />
          </mxGeometry>
        </mxCell>
        <mxCell id="CebM5aKBRsjipQ1LpqMG-18" value="&lt;font style=&quot;font-size: 20px&quot;&gt;True&lt;/font&gt;" style="text;html=1;strokeColor=none;fillColor=none;align=center;verticalAlign=middle;whiteSpace=wrap;sketch=1;" vertex="1" parent="WIyWlLk6GJQsqaUBKTNV-1">
          <mxGeometry x="840" y="620" width="40" height="20" as="geometry" />
        </mxCell>
        <mxCell id="CebM5aKBRsjipQ1LpqMG-19" value="" style="endArrow=classic;html=1;exitX=1;exitY=0.5;exitDx=0;exitDy=0;sketch=1;curved=1;" edge="1" parent="WIyWlLk6GJQsqaUBKTNV-1">
          <mxGeometry width="50" height="50" relative="1" as="geometry">
            <mxPoint x="910" y="534.5" as="sourcePoint" />
            <mxPoint x="1060" y="534.5" as="targetPoint" />
            <Array as="points">
              <mxPoint x="1060" y="534.5" />
            </Array>
          </mxGeometry>
        </mxCell>
        <mxCell id="CebM5aKBRsjipQ1LpqMG-20" value="&lt;font style=&quot;font-size: 20px&quot;&gt;False&lt;/font&gt;" style="text;html=1;strokeColor=none;fillColor=none;align=center;verticalAlign=middle;whiteSpace=wrap;sketch=1;" vertex="1" parent="WIyWlLk6GJQsqaUBKTNV-1">
          <mxGeometry x="950" y="510" width="40" height="20" as="geometry" />
        </mxCell>
        <mxCell id="CebM5aKBRsjipQ1LpqMG-21" value="&lt;font style=&quot;font-size: 22px&quot;&gt;Fetch data&lt;/font&gt;" style="whiteSpace=wrap;html=1;fontSize=12;glass=0;strokeWidth=1;shadow=0;sketch=1;fillColor=#d5e8d4;strokeColor=#82b366;" vertex="1" parent="WIyWlLk6GJQsqaUBKTNV-1">
          <mxGeometry x="750" y="680" width="140" height="50" as="geometry" />
        </mxCell>
        <mxCell id="CebM5aKBRsjipQ1LpqMG-22" value="&lt;font style=&quot;font-size: 17px&quot;&gt;If item number match with manufacture part number&lt;br&gt;&lt;/font&gt;" style="rhombus;whiteSpace=wrap;html=1;shadow=0;fontFamily=Helvetica;fontSize=12;align=center;strokeWidth=1;spacing=6;spacingTop=-4;sketch=1;fillColor=#f8cecc;strokeColor=#b85450;" vertex="1" parent="WIyWlLk6GJQsqaUBKTNV-1">
          <mxGeometry x="1061" y="475" width="269" height="120" as="geometry" />
        </mxCell>
        <mxCell id="CebM5aKBRsjipQ1LpqMG-25" value="" style="endArrow=classic;html=1;exitX=1;exitY=0.5;exitDx=0;exitDy=0;entryX=0.03;entryY=0.492;entryDx=0;entryDy=0;entryPerimeter=0;sketch=1;curved=1;" edge="1" parent="WIyWlLk6GJQsqaUBKTNV-1" target="CebM5aKBRsjipQ1LpqMG-34">
          <mxGeometry width="50" height="50" relative="1" as="geometry">
            <mxPoint x="1330" y="534.5" as="sourcePoint" />
            <mxPoint x="1530" y="670" as="targetPoint" />
            <Array as="points">
              <mxPoint x="1410" y="535" />
              <mxPoint x="1486" y="535" />
            </Array>
          </mxGeometry>
        </mxCell>
        <mxCell id="CebM5aKBRsjipQ1LpqMG-26" value="&lt;font style=&quot;font-size: 20px&quot;&gt;False&lt;/font&gt;" style="text;html=1;strokeColor=none;fillColor=none;align=center;verticalAlign=middle;whiteSpace=wrap;sketch=1;" vertex="1" parent="WIyWlLk6GJQsqaUBKTNV-1">
          <mxGeometry x="1370" y="510" width="40" height="20" as="geometry" />
        </mxCell>
        <mxCell id="CebM5aKBRsjipQ1LpqMG-27" value="" style="endArrow=classic;html=1;exitX=0.5;exitY=1;exitDx=0;exitDy=0;sketch=1;curved=1;" edge="1" parent="WIyWlLk6GJQsqaUBKTNV-1">
          <mxGeometry width="50" height="50" relative="1" as="geometry">
            <mxPoint x="1195" y="595" as="sourcePoint" />
            <mxPoint x="1195" y="670" as="targetPoint" />
          </mxGeometry>
        </mxCell>
        <mxCell id="CebM5aKBRsjipQ1LpqMG-28" value="&lt;font style=&quot;font-size: 20px&quot;&gt;True&lt;/font&gt;" style="text;html=1;strokeColor=none;fillColor=none;align=center;verticalAlign=middle;whiteSpace=wrap;sketch=1;" vertex="1" parent="WIyWlLk6GJQsqaUBKTNV-1">
          <mxGeometry x="1210" y="630" width="40" height="20" as="geometry" />
        </mxCell>
        <mxCell id="CebM5aKBRsjipQ1LpqMG-29" value="&lt;font style=&quot;font-size: 22px&quot;&gt;Fetch data&lt;/font&gt;" style="whiteSpace=wrap;html=1;fontSize=12;glass=0;strokeWidth=1;shadow=0;sketch=1;" vertex="1" parent="WIyWlLk6GJQsqaUBKTNV-1">
          <mxGeometry x="1125.5" y="690" width="140" height="50" as="geometry" />
        </mxCell>
        <mxCell id="CebM5aKBRsjipQ1LpqMG-31" value="&lt;font style=&quot;font-size: 17px&quot;&gt;&lt;br&gt;Check description (threshold=40%)&lt;br&gt;&lt;/font&gt;" style="rhombus;whiteSpace=wrap;html=1;shadow=0;fontFamily=Helvetica;fontSize=12;align=center;strokeWidth=1;spacing=6;spacingTop=-4;sketch=1;" vertex="1" parent="WIyWlLk6GJQsqaUBKTNV-1">
          <mxGeometry x="1105.5" y="670" width="180" height="110" as="geometry" />
        </mxCell>
        <mxCell id="CebM5aKBRsjipQ1LpqMG-32" value="" style="endArrow=classic;html=1;exitX=1;exitY=0.5;exitDx=0;exitDy=0;entryX=0;entryY=0.5;entryDx=0;entryDy=0;sketch=1;curved=1;" edge="1" parent="WIyWlLk6GJQsqaUBKTNV-1" target="CebM5aKBRsjipQ1LpqMG-34">
          <mxGeometry width="50" height="50" relative="1" as="geometry">
            <mxPoint x="1285.5" y="744.5" as="sourcePoint" />
            <mxPoint x="1435.5" y="744.5" as="targetPoint" />
            <Array as="points">
              <mxPoint x="1479" y="745" />
            </Array>
          </mxGeometry>
        </mxCell>
        <mxCell id="CebM5aKBRsjipQ1LpqMG-33" value="&lt;font style=&quot;font-size: 20px&quot;&gt;False&lt;/font&gt;" style="text;html=1;strokeColor=none;fillColor=none;align=center;verticalAlign=middle;whiteSpace=wrap;sketch=1;" vertex="1" parent="WIyWlLk6GJQsqaUBKTNV-1">
          <mxGeometry x="1330" y="720" width="40" height="20" as="geometry" />
        </mxCell>
        <mxCell id="CebM5aKBRsjipQ1LpqMG-34" value="&lt;font style=&quot;font-size: 16px&quot;&gt;&lt;br&gt;Check equality of item number with item number from description and flag=1&lt;br&gt;&lt;/font&gt;" style="rhombus;whiteSpace=wrap;html=1;shadow=0;fontFamily=Helvetica;fontSize=12;align=center;strokeWidth=1;spacing=6;spacingTop=-4;sketch=1;fillColor=#f8cecc;strokeColor=#b85450;" vertex="1" parent="WIyWlLk6GJQsqaUBKTNV-1">
          <mxGeometry x="1670" y="560" width="330" height="150" as="geometry" />
        </mxCell>
        <mxCell id="CebM5aKBRsjipQ1LpqMG-39" value="" style="endArrow=classic;html=1;exitX=0.5;exitY=1;exitDx=0;exitDy=0;sketch=1;curved=1;" edge="1" parent="WIyWlLk6GJQsqaUBKTNV-1" source="CebM5aKBRsjipQ1LpqMG-31">
          <mxGeometry width="50" height="50" relative="1" as="geometry">
            <mxPoint x="1195" y="800" as="sourcePoint" />
            <mxPoint x="1195" y="830" as="targetPoint" />
          </mxGeometry>
        </mxCell>
        <mxCell id="CebM5aKBRsjipQ1LpqMG-42" value="&lt;font style=&quot;font-size: 20px&quot;&gt;True&lt;/font&gt;" style="text;html=1;strokeColor=none;fillColor=none;align=center;verticalAlign=middle;whiteSpace=wrap;sketch=1;" vertex="1" parent="WIyWlLk6GJQsqaUBKTNV-1">
          <mxGeometry x="1201" y="800" width="40" height="20" as="geometry" />
        </mxCell>
        <mxCell id="CebM5aKBRsjipQ1LpqMG-43" value="&lt;font style=&quot;font-size: 20px&quot;&gt;False&lt;/font&gt;" style="text;html=1;strokeColor=none;fillColor=none;align=center;verticalAlign=middle;whiteSpace=wrap;sketch=1;" vertex="1" parent="WIyWlLk6GJQsqaUBKTNV-1">
          <mxGeometry x="740" y="180" width="40" height="20" as="geometry" />
        </mxCell>
        <mxCell id="CebM5aKBRsjipQ1LpqMG-44" value="" style="endArrow=classic;html=1;exitX=0.5;exitY=0;exitDx=0;exitDy=0;entryX=0.5;entryY=0;entryDx=0;entryDy=0;sketch=1;curved=1;" edge="1" parent="WIyWlLk6GJQsqaUBKTNV-1" source="CebM5aKBRsjipQ1LpqMG-34" target="CebM5aKBRsjipQ1LpqMG-11">
          <mxGeometry width="50" height="50" relative="1" as="geometry">
            <mxPoint x="1320" y="510" as="sourcePoint" />
            <mxPoint x="1370" y="460" as="targetPoint" />
            <Array as="points">
              <mxPoint x="1835" y="60" />
              <mxPoint x="520" y="60" />
            </Array>
          </mxGeometry>
        </mxCell>
        <mxCell id="CebM5aKBRsjipQ1LpqMG-45" value="&lt;font style=&quot;font-size: 20px&quot;&gt;True&lt;/font&gt;" style="text;html=1;strokeColor=none;fillColor=none;align=center;verticalAlign=middle;whiteSpace=wrap;sketch=1;" vertex="1" parent="WIyWlLk6GJQsqaUBKTNV-1">
          <mxGeometry x="990" y="30" width="40" height="20" as="geometry" />
        </mxCell>
        <mxCell id="CebM5aKBRsjipQ1LpqMG-48" value="&lt;font style=&quot;font-size: 22px&quot;&gt;Fetch data&lt;/font&gt;" style="whiteSpace=wrap;html=1;fontSize=12;glass=0;strokeWidth=1;shadow=0;sketch=1;fillColor=#d5e8d4;strokeColor=#82b366;" vertex="1" parent="WIyWlLk6GJQsqaUBKTNV-1">
          <mxGeometry x="1130" y="830" width="140" height="50" as="geometry" />
        </mxCell>
        <mxCell id="CebM5aKBRsjipQ1LpqMG-49" value="&lt;font style=&quot;font-size: 20px&quot;&gt;True&lt;/font&gt;" style="text;html=1;strokeColor=none;fillColor=none;align=center;verticalAlign=middle;whiteSpace=wrap;sketch=1;" vertex="1" parent="WIyWlLk6GJQsqaUBKTNV-1">
          <mxGeometry x="1250" y="420" width="40" height="20" as="geometry" />
        </mxCell>
      </root>
    </mxGraphModel>
  </diagram>
</mxfile>
